<svg width="790" height="714" viewBox="0 0 790 714" fill="none" xmlns="http://www.w3.org/2000/svg" xmlns:xlink="http://www.w3.org/1999/xlink">
<path d="M789.277,387.848C789.277,567.274 612.377,712.728 394.159,712.728C175.943,712.728 -0.957,567.274 -0.957,387.848C-0.957,208.422 175.943,62.968 394.159,62.968C612.377,62.968 789.277,208.422 789.277,387.848Z" fill="#ADF2FF" stroke="#000000" stroke-width="10" stroke-miterlimit="3.999327"/>
<path d="M399.692,105.301C399.692,105.301 389.733,85.863 399.692,80.31C409.651,74.757 395.902,84.938 435.109,80.31C474.315,75.682 464.98,78.459 471.632,80.31C478.284,82.161 518.116,105.301 518.116,105.301C518.116,105.301 532.504,108.078 532.504,114.557C532.504,121.036 514.784,141.399 518.116,146.026C521.448,150.654 532.504,161.761 532.504,161.761C532.504,161.761 538.027,174.72 532.504,177.496C526.982,180.273 503.74,177.496 499.301,177.496C494.863,177.496 477.177,161.761 471.632,161.761C466.087,161.761 441.629,115.675 435.109,114.557C428.588,113.438 417.412,116.408 411.866,114.557C406.321,112.705 399.692,105.301 399.692,105.301Z" fill="#36BF00" stroke="#000000" stroke-width="10" stroke-miterlimit="3.999327"/>
<path d="M730.662,242.223C740.623,247.776 686.391,191.316 686.391,191.316C686.391,191.316 662.043,185.762 654.295,191.316C646.547,196.869 654.295,218.158 654.295,218.158L638.8,223.711C638.8,223.711 627.733,213.53 616.665,242.223C605.597,270.916 638.8,270.916 638.8,270.916C638.8,270.916 720.702,236.669 730.662,242.223Z" fill="#36BF00" stroke="#000000" stroke-width="10" stroke-miterlimit="3.999327"/>
<path d="M644.165,162.548L636.291,156.979C636.291,156.979 630.234,156.979 627.206,144.912C624.177,132.845 624.177,134.702 627.206,123.563C630.234,112.425 627.206,117.994 636.291,107.784C638.492,105.311 639.946,104.036 640.887,103.523L639.319,95.717L641.742,80.866L648.405,73.44L658.701,67.871L655.067,58.589L658.701,37.241C658.701,37.241 662.941,24.246 669.604,16.82C676.266,9.394 685.351,5.682 685.351,5.682L693.831,9.394C693.831,9.394 698.676,0.112 704.128,0.112L717.453,0.112C724.721,0.112 731.989,5.682 731.989,5.682L739.863,24.246C739.863,24.246 749.554,16.82 753.794,16.82C758.034,16.82 767.725,16.82 770.753,24.246C773.782,31.671 778.627,36.312 776.204,41.882C773.782,47.451 770.753,52.092 770.753,52.092L773.782,58.589C773.782,58.589 782.867,69.728 784.078,80.866C785.29,92.005 782.261,104.999 781.655,112.425C781.05,119.851 770.753,123.563 770.753,123.563C770.753,123.563 773.782,132.845 773.782,144.912C773.782,156.979 766.513,162.548 766.513,162.548L753.794,173.686L739.863,178.327C739.863,178.327 738.046,192.25 731.989,195.963C725.932,199.676 719.875,199.676 719.875,199.676L705.945,194.107L704.128,206.174C704.128,206.174 699.888,214.526 693.831,214.526C687.774,214.526 681.717,206.174 681.717,206.174L678.689,199.676L669.604,209.886C669.604,209.886 655.067,219.168 648.405,222.88C641.742,226.594 641.742,219.168 636.291,214.526C630.84,209.886 627.206,182.968 627.206,182.968L630.234,169.974L644.165,162.548Z" transform="rotate(176.067 704.648 112)" fill="#D9D9D9" stroke="#000000" stroke-width="2" stroke-miterlimit="3.999327"/>
</svg>
