<svg width="1226" height="1070" viewBox="0 0 1226 1070" fill="none" xmlns="http://www.w3.org/2000/svg" xmlns:xlink="http://www.w3.org/1999/xlink">
<path d="M469.679,-0.901L494.749,8.044L502.727,20.568L502.727,30.408L494.749,41.142L469.679,51.877L454.863,67.084L436.629,80.55C436.629,80.55 401.303,108.566 436.629,115.722C439.827,116.37 442.423,116.894 444.511,117.313C445.495,117.453 448.313,118.008 450.221,118.399C464.307,118.259 488.533,99.74 494.749,96.604C501.455,93.22 454.863,121.276 509.565,91.237C564.265,61.197 509.377,88.504 509.565,86.764C510.263,80.253 517.925,71.557 517.925,71.557C517.925,71.557 532.727,61.113 538.055,62.964C543.381,64.815 561.985,71.557 561.985,71.557L588.197,91.237L621.245,124.335C647.455,152.96 621.245,152.96 621.245,152.96L609.849,166.378L579.079,180.691C579.079,180.691 553.343,191.62 546.031,194.109C538.719,196.598 536.047,210.781 538.055,216.473C540.061,222.165 546.031,232.347 546.031,242.415C546.031,252.483 531.217,258.517 531.217,258.517L494.749,258.517L454.863,258.517L416.117,258.517L380.79,265.673L354.579,280.881L339.764,301.455L323.81,330.081L339.764,353.339L354.579,371.229C354.579,371.229 370.534,389.121 380.79,371.229C391.046,353.339 462.841,329.185 442.327,353.339C421.815,377.491 471.629,424.001 482.213,426.691L524.379,434.741L546.031,434.741L583.637,434.741C618.633,439.721 656.723,440.875 665.689,448.159C665.689,448.159 727.547,477.361 730.647,483.047C733.745,488.733 761.415,538.509 761.415,538.509L761.415,548.349L706.715,568.029L636.059,581.447L561.985,585.919L499.307,577.869L462.841,560.873C462.841,560.873 454.839,542.417 454.863,534.931C454.887,527.445 475.377,513.461 475.377,513.461C475.377,513.461 482.213,501.691 486.773,496.465C491.331,491.239 469.679,468.735 469.679,468.735L442.327,450.843L407.001,426.691L367.115,405.221L330.648,382.859C330.648,382.859 316.494,374.887 311.274,371.229C306.055,367.571 290.762,347.399 290.762,347.399L270.249,314.873L250.876,301.455L231.503,301.455C223.525,301.455 223.525,274.619 223.525,274.619L231.503,235.259L239.48,201.265L258.853,166.378L290.762,118.073L311.274,71.557L339.764,51.877L391.046,20.568L416.117,8.044L436.629,-0.901L469.679,-0.901Z" fill="#36BF00" stroke="#000000" stroke-width="10" stroke-miterlimit="3.999327"/>
<path d="M844.966,189.461C844.966,189.461 800.827,191.343 781.91,214.867L762.993,238.392C762.993,238.392 744.076,273.208 744.076,298.615C744.076,324.021 762.993,340.959 762.993,340.959L814.489,370.129L873.341,389.891L915.378,437.881C915.378,437.881 927.05,406.903 934.295,357.896C941.54,308.891 941.54,308.891 934.295,282.618C927.05,256.345 931.152,208.189 915.378,189.461C899.604,170.732 844.966,189.461 844.966,189.461Z" transform="rotate(21.086 841.902 309.508)" fill="#36BF00" stroke="#000000" stroke-width="10" stroke-miterlimit="3.999327"/>
<path d="M423.547,172.515C420.657,174.136 419.628,177.793 421.248,180.683C422.869,183.574 426.526,184.603 429.416,182.982L423.547,172.515ZM616.119,163.862C618.43,166.236 622.229,166.288 624.603,163.976C626.978,161.665 627.03,157.866 624.718,155.492L616.119,163.862ZM426.482,177.749C429.416,182.982 429.416,182.983 429.415,182.983C429.416,182.982 429.416,182.982 429.417,182.981C429.42,182.98 429.424,182.978 429.431,182.974C429.444,182.967 429.465,182.955 429.495,182.938C429.554,182.906 429.645,182.855 429.768,182.787C430.014,182.652 430.387,182.448 430.879,182.183C431.864,181.652 433.328,180.874 435.219,179.901C439.002,177.954 444.486,175.227 451.251,172.132C464.799,165.934 483.396,158.3 503.692,152.483C524.037,146.652 545.784,142.737 565.725,143.746C585.623,144.753 603.232,150.623 616.119,163.862L624.718,155.492C609.056,139.401 588.148,132.865 566.331,131.761C544.556,130.659 521.387,134.928 500.386,140.948C479.335,146.981 460.153,154.864 446.259,161.22C439.303,164.402 433.651,167.212 429.727,169.232C427.765,170.242 426.233,171.055 425.186,171.62C424.662,171.902 424.259,172.122 423.984,172.273C423.846,172.349 423.741,172.408 423.667,172.448C423.631,172.469 423.603,172.484 423.582,172.496C423.572,172.501 423.564,172.506 423.559,172.509C423.556,172.511 423.553,172.512 423.551,172.513C423.549,172.514 423.547,172.515 426.482,177.749Z" transform="rotate(80.156 523.45 157.668)" fill="#000000"/>
<path d="M647.214,174.115C644.565,176.106 644.031,179.867 646.021,182.516C648.011,185.165 651.773,185.7 654.422,183.709L647.214,174.115ZM777.593,166.005C779.541,168.686 783.293,169.281 785.974,167.333C788.655,165.385 789.249,161.633 787.301,158.952L777.593,166.005ZM650.818,178.912C654.422,183.709 654.421,183.71 654.42,183.711C654.421,183.71 654.42,183.711 654.421,183.71C654.422,183.709 654.424,183.708 654.428,183.705C654.436,183.699 654.449,183.689 654.468,183.675C654.505,183.647 654.565,183.603 654.645,183.544C654.807,183.424 655.054,183.243 655.383,183.006C656.04,182.532 657.021,181.833 658.291,180.957C660.831,179.205 664.52,176.748 669.071,173.959C678.198,168.365 690.677,161.506 704.251,156.294C717.895,151.054 732.202,147.653 745.125,148.529C757.801,149.389 769.111,154.33 777.593,166.005L787.301,158.952C776.407,143.957 761.575,137.617 745.937,136.557C730.547,135.513 714.368,139.555 699.949,145.091C685.46,150.655 672.298,157.906 662.8,163.728C658.038,166.646 654.168,169.224 651.478,171.079C650.132,172.007 649.08,172.756 648.358,173.277C647.997,173.538 647.718,173.742 647.526,173.884C647.43,173.955 647.355,174.01 647.303,174.049C647.277,174.068 647.257,174.083 647.242,174.094C647.234,174.1 647.228,174.105 647.224,174.108C647.221,174.11 647.219,174.112 647.218,174.112C647.216,174.114 647.214,174.115 650.818,178.912Z" transform="rotate(251.66 716.633 160.652)" fill="#000000"/>
<path d="M672.1,199.917C668.349,200.855 666.069,204.656 667.008,208.406C667.946,212.157 671.747,214.436 675.497,213.498L672.1,199.917ZM774.581,215.935C778.278,217.066 782.192,214.986 783.323,211.29C784.454,207.593 782.374,203.679 778.678,202.548L774.581,215.935ZM675.497,213.498C695.153,208.581 710.467,206.38 725.457,206.756C740.444,207.131 755.484,210.092 774.581,215.935L778.678,202.548C758.878,196.49 742.508,193.178 725.808,192.76C709.11,192.342 692.457,194.824 672.1,199.917L675.497,213.498Z" transform="rotate(249.475 725.214 204.478)" fill="#000000"/>
<path d="M704.045,218.308C700.283,219.2 697.957,222.973 698.849,226.735C699.742,230.496 703.514,232.822 707.276,231.93L704.045,218.308ZM809.153,234.306C812.866,235.383 816.749,233.246 817.826,229.533C818.903,225.82 816.767,221.937 813.054,220.86L809.153,234.306ZM707.276,231.93C727.454,227.144 743.207,224.993 758.645,225.36C774.079,225.727 789.549,228.618 809.153,234.306L813.054,220.86C792.772,214.976 776.036,211.769 758.977,211.364C741.922,210.959 724.896,213.362 704.045,218.308L707.276,231.93Z" transform="rotate(328.065 758.382 222.951)" fill="#000000"/>
<path d="M701.937,250.24C698.565,252.129 697.363,256.395 699.253,259.768C701.142,263.141 705.409,264.343 708.781,262.453L701.937,250.24ZM792.032,263.979C793.55,267.534 797.663,269.185 801.219,267.667C804.774,266.148 806.425,262.035 804.907,258.48L792.032,263.979ZM708.781,262.453C709.527,262.035 711.33,261.388 714.536,260.775C717.586,260.191 721.396,259.73 725.763,259.408C734.488,258.764 745.011,258.708 755.296,259.193C765.603,259.68 775.431,260.7 782.807,262.14C786.526,262.865 789.357,263.647 791.239,264.406C792.182,264.786 792.667,265.073 792.845,265.199C793.089,265.372 792.482,265.034 792.032,263.979L804.907,258.48C803.938,256.213 802.261,254.714 800.945,253.781C799.564,252.801 798,252.036 796.471,251.42C793.408,250.186 789.596,249.2 785.488,248.399C777.212,246.784 766.653,245.714 755.956,245.209C745.236,244.703 734.135,244.752 724.733,245.446C720.037,245.792 715.657,246.307 711.906,247.024C708.311,247.712 704.701,248.691 701.937,250.24L708.781,262.453Z" transform="rotate(-330.209 751.914 256.55)" fill="#000000"/>
<path d="M733.133,252.708L838.277,252.708C838.277,252.708 933.459,480.402 940.099,554.448C943.619,593.69 938.745,677.642 933.385,747.896L957.807,747.896L1044.135,753.45L1123.823,772.886L1188.015,801.58C1188.015,801.58 1222.329,828.422 1225.645,848.784C1228.963,869.148 1207.937,904.088 1207.937,904.088C1207.937,904.088 1173.631,977.44 1145.959,947.822C1118.285,918.204 1009.825,979.292 1009.825,979.292L899.149,992.25L778.511,995.028L654.551,995.028C654.551,995.028 645.697,989.474 632.417,1009.836C619.135,1030.2 654.551,1026.496 654.551,1041.306C654.551,1056.116 667.833,1070 632.417,1070L509.565,1070L357.937,1070L228.445,1052.414C228.445,1052.414 154.292,1039.456 126.623,1030.2C98.953,1020.944 91.206,1003.358 87.886,979.292C84.565,955.226 117.769,947.822 117.769,947.822C117.769,947.822 135.477,943.194 126.623,924.682C117.768,906.17 52.469,889.974 52.469,889.974C52.469,889.974 15.946,889.974 4.878,848.784C-6.19,807.596 4.878,814.538 4.878,814.538C4.878,814.538 69.074,721.054 74.604,784.92C80.135,848.784 168.68,763.63 168.68,763.63L260.541,753.45L288.177,752.834L283.781,709.946L283.781,615.538L312.557,466.518C312.557,466.518 338.013,379.514 363.469,334.16C388.923,288.806 397.777,252.708 397.777,252.708L496.281,252.708L478.573,315.648L422.127,485.03C422.127,485.03 411.059,599.802 407.739,621.09C405.545,635.158 412.533,699.74 417.525,749.948L509.565,747.896L732.579,747.896L798.073,747.896L812.821,642.38C812.821,642.38 819.461,573.886 812.821,554.448C806.181,535.012 770.763,380.439 770.763,380.439L733.133,252.708Z" fill="#ADF2FF" stroke="#000000" stroke-width="10" stroke-miterlimit="3.999327"/>
<path d="M473.628,213.814C469.408,215.126 467.051,219.609 468.363,223.828C469.675,228.047 474.158,230.404 478.377,229.093L473.628,213.814ZM564.627,231.732C568.756,233.303 573.377,231.228 574.948,227.098C576.518,222.968 574.443,218.347 570.313,216.777L564.627,231.732ZM478.377,229.093C495.705,223.706 508.981,221.367 521.859,221.768C534.737,222.169 547.782,225.328 564.627,231.732L570.313,216.777C552.558,210.026 537.665,206.252 522.357,205.776C507.05,205.299 491.892,208.137 473.628,213.814L478.377,229.093Z" transform="rotate(169.874 521.736 218.989)" fill="#000000"/>
<path d="M429.863,218.035C425.587,219.147 423.022,223.515 424.135,227.791C425.247,232.067 429.615,234.632 433.891,233.519L429.863,218.035ZM530.22,235.983C534.43,237.322 538.929,234.995 540.269,230.785C541.609,226.575 539.281,222.075 535.071,220.736L530.22,235.983ZM433.891,233.519C453.083,228.527 467.952,226.314 482.463,226.692C496.971,227.07 511.573,230.05 530.22,235.983L535.071,220.736C515.601,214.541 499.424,211.129 482.88,210.698C466.339,210.267 449.882,212.827 429.863,218.035L433.891,233.519Z" transform="rotate(79.377 482.261 223.505)" fill="#000000"/>
<path d="M416.764,248.678C412.771,250.57 411.067,255.34 412.958,259.333C414.85,263.326 419.62,265.03 423.613,263.138L416.764,248.678ZM513.749,263.98C515.742,267.924 520.554,269.505 524.497,267.513C528.441,265.52 530.022,260.708 528.03,256.765L513.749,263.98ZM423.613,263.138C424.453,262.74 426.461,262.136 429.968,261.569C433.303,261.03 437.454,260.605 442.197,260.31C451.672,259.719 463.086,259.668 474.234,260.113C485.406,260.559 496.075,261.494 504.099,262.817C508.145,263.484 511.247,264.207 513.32,264.913C514.366,265.269 514.895,265.537 515.073,265.644C515.399,265.839 514.468,265.404 513.749,263.98L528.03,256.765C526.751,254.233 524.662,252.737 523.301,251.921C521.793,251.017 520.107,250.322 518.478,249.768C515.203,248.652 511.12,247.759 506.702,247.03C497.797,245.562 486.418,244.586 474.872,244.125C463.303,243.663 451.331,243.709 441.201,244.341C436.141,244.656 431.435,245.124 427.414,245.774C423.565,246.396 419.72,247.278 416.764,248.678L423.613,263.138Z" transform="rotate(13.827 470.539 256.095)" fill="#000000"/>
<path d="M763.442,361.06L749.065,355.5C749.065,355.5 738.006,355.5 732.477,343.453C726.948,331.407 726.948,333.26 732.477,322.141C738.006,311.021 732.477,316.581 749.065,306.388C753.084,303.919 755.739,302.646 757.456,302.134L754.595,294.341L759.018,279.515L771.183,272.102L789.983,266.542L783.348,257.276L789.983,235.963C789.983,235.963 797.724,222.99 809.889,215.577C822.054,208.163 838.642,204.457 838.642,204.457L854.124,208.163C854.124,208.163 862.971,198.897 872.924,198.897L897.254,198.897C910.524,198.897 923.795,204.457 923.795,204.457L938.172,222.99C938.172,222.99 955.866,215.577 963.606,215.577C971.348,215.577 989.042,215.577 994.572,222.99C1000.1,230.403 1008.948,235.036 1004.524,240.596C1000.1,246.156 994.572,250.789 994.572,250.789L1000.1,257.276C1000.1,257.276 1016.69,268.395 1018.9,279.515C1021.112,290.635 1015.584,303.608 1014.478,311.021C1013.372,318.434 994.572,322.141 994.572,322.141C994.572,322.141 1000.1,331.407 1000.1,343.453C1000.1,355.5 986.83,361.06 986.83,361.06L963.606,372.179L938.172,376.813C938.172,376.813 934.854,390.712 923.795,394.419C912.736,398.125 901.677,398.125 901.677,398.125L876.242,392.566L872.924,404.611C872.924,404.611 865.183,412.951 854.124,412.951C843.065,412.951 832.007,404.611 832.007,404.611L826.477,398.125L809.889,408.319C809.889,408.319 783.348,417.585 771.183,421.291C759.018,424.999 759.018,417.585 749.065,412.951C739.112,408.319 732.477,381.446 732.477,381.446L738.006,368.473L763.442,361.06Z" transform="rotate(7.005 873.874 310.596)" fill="#D9D9D9" stroke="#000000" stroke-width="2" stroke-miterlimit="3.999327"/>
<path d="M40.315,180.03L26.613,175.947C26.613,175.947 16.074,175.947 10.804,167.1C5.534,158.254 5.534,159.615 10.804,151.449C16.074,143.283 10.804,147.366 26.613,139.881C30.443,138.068 32.974,137.133 34.611,136.757L31.883,131.034L36.099,120.147L47.693,114.703L65.61,110.62L59.286,103.815L65.61,88.164C65.61,88.164 72.988,78.637 84.582,73.193C96.175,67.749 111.985,65.027 111.985,65.027L126.741,67.749C126.741,67.749 135.172,60.944 144.658,60.944L167.845,60.944C180.493,60.944 193.141,65.027 193.141,65.027L206.842,78.637C206.842,78.637 223.705,73.193 231.083,73.193C238.461,73.193 255.325,73.193 260.595,78.637C265.865,84.081 274.297,87.483 270.081,91.566C265.865,95.649 260.595,99.052 260.595,99.052L265.865,103.815C265.865,103.815 281.673,111.981 283.781,120.147C285.889,128.312 280.621,137.839 279.567,143.283C278.513,148.727 260.595,151.449 260.595,151.449C260.595,151.449 265.865,158.254 265.865,167.1C265.865,175.947 253.217,180.03 253.217,180.03L231.083,188.195L206.842,191.598C206.842,191.598 203.681,201.805 193.141,204.527C182.601,207.249 172.061,207.249 172.061,207.249L147.82,203.166L144.658,212.012C144.658,212.012 137.28,218.137 126.741,218.137C116.201,218.137 105.661,212.012 105.661,212.012L100.391,207.249L84.582,214.734C84.582,214.734 59.286,221.539 47.693,224.261C36.099,226.983 36.099,221.539 26.613,218.137C17.128,214.734 10.804,195 10.804,195L16.074,185.473L40.315,180.03Z" transform="rotate(7.005 145.563 142.971)" fill="#D9D9D9" stroke="#000000" stroke-width="2" stroke-miterlimit="3.999327"/>
<path d="M781.002,574.737L774.043,571.919C774.043,571.919 768.689,571.919 766.012,565.813C763.336,559.708 763.336,560.647 766.012,555.011C768.689,549.375 766.012,552.193 774.043,547.026C775.988,545.775 777.273,545.13 778.105,544.87L776.719,540.92L778.861,533.406L784.75,529.648L793.85,526.83L790.638,522.133L793.85,511.331C793.85,511.331 797.598,504.755 803.487,500.998C809.376,497.24 817.406,495.361 817.406,495.361L824.901,497.24C824.901,497.24 829.183,492.543 834.002,492.543L845.779,492.543C852.203,492.543 858.628,495.361 858.628,495.361L865.587,504.755C865.587,504.755 874.153,500.998 877.9,500.998C881.648,500.998 890.213,500.998 892.89,504.755C895.567,508.512 899.849,510.861 897.708,513.679C895.567,516.497 892.89,518.845 892.89,518.845L895.567,522.133C895.567,522.133 903.597,527.769 904.668,533.406C905.738,539.042 903.061,545.617 902.526,549.375C901.991,553.132 892.89,555.011 892.89,555.011C892.89,555.011 895.567,559.708 895.567,565.813C895.567,571.919 889.142,574.737 889.142,574.737L877.9,580.374L865.587,582.722C865.587,582.722 863.981,589.767 858.628,591.646C853.274,593.525 847.921,593.525 847.921,593.525L835.608,590.706L834.002,596.812C834.002,596.812 830.254,601.039 824.901,601.039C819.547,601.039 814.194,596.812 814.194,596.812L811.517,593.525L803.487,598.691C803.487,598.691 790.638,603.388 784.75,605.267C778.861,607.145 778.861,603.388 774.043,601.039C769.224,598.691 766.012,585.07 766.012,585.07L768.689,578.495L781.002,574.737Z" transform="rotate(7.005 834.461 549.159)" fill="#D9D9D9" stroke="#000000" stroke-width="2" stroke-miterlimit="3.999327"/>
<path d="M712.718,357.3C712.718,401.773 674.563,437.826 627.497,437.826C580.43,437.826 542.275,401.773 542.275,357.3C542.275,312.827 580.43,276.774 627.497,276.774C674.563,276.774 712.718,312.827 712.718,357.3Z" fill="#000000"/>
<path d="M554.412,361.929L564.672,354.228L583.909,351.34L598.017,351.34L608.276,354.228L624.281,361.62C622.497,360.696 617.965,357.617 621.101,351.34C624.949,343.639 632.644,345.565 632.644,345.565C632.644,345.565 644.187,339.789 655.728,343.639C656.229,343.806 656.65,343.95 657,344.072C653.833,342.668 648.404,339.158 671.118,339.789C705.745,340.752 705.745,345.565 705.745,345.565C705.745,345.565 716.005,357.116 716.005,364.817C716.005,372.517 718.569,360.004 716.005,383.106C713.441,406.208 716.005,407.171 716.005,407.171L698.05,419.685L659.576,430.273L617.254,434.123L583.909,424.497C583.909,424.497 564.672,416.797 560.824,412.946C556.977,409.096 554.412,392.732 551.847,381.181C549.282,369.63 554.412,361.929 554.412,361.929Z" fill="#F80505" stroke="#000000" stroke-width="2" stroke-miterlimit="3.999327"/>
<path d="M648.242,365.074L644.602,362.268C644.602,362.268 641.803,362.268 640.403,356.19C639.003,350.112 639.003,351.047 640.403,345.436C641.803,339.825 640.403,342.631 644.602,337.488C645.62,336.242 646.292,335.599 646.726,335.341L646.002,331.409L647.122,323.928L650.201,320.188L654.96,317.383L653.281,312.707L654.96,301.953C654.96,301.953 656.92,295.407 659.999,291.667C663.079,287.926 667.278,286.056 667.278,286.056L671.197,287.926C671.197,287.926 673.437,283.251 675.956,283.251L682.115,283.251C685.474,283.251 688.834,286.056 688.834,286.056L692.473,295.407C692.473,295.407 696.952,291.667 698.912,291.667C700.871,291.667 705.351,291.667 706.75,295.407C708.15,299.148 710.39,301.486 709.27,304.291C708.15,307.096 706.75,309.434 706.75,309.434L708.15,312.707C708.15,312.707 712.349,318.318 712.909,323.928C713.469,329.539 712.069,336.085 711.789,339.825C711.509,343.566 706.75,345.436 706.75,345.436C706.75,345.436 708.15,350.112 708.15,356.19C708.15,362.268 704.791,365.074 704.791,365.074L698.912,370.684L692.473,373.022C692.473,373.022 691.633,380.035 688.834,381.906C686.034,383.776 683.235,383.776 683.235,383.776L676.796,380.971L675.956,387.049C675.956,387.049 673.997,391.257 671.197,391.257C668.398,391.257 665.598,387.049 665.598,387.049L664.199,383.776L659.999,388.919C659.999,388.919 653.281,393.595 650.201,395.465C647.122,397.335 647.122,393.595 644.602,391.257C642.083,388.919 640.403,375.36 640.403,375.36L641.803,368.814L648.242,365.074Z" transform="rotate(84.652 676.197 339.611)" fill="#D9D9D9" stroke="#000000" stroke-width="2" stroke-miterlimit="3.999327"/>
</svg>
