<svg width="346" height="350" viewBox="0 0 346 350" fill="none" xmlns="http://www.w3.org/2000/svg" xmlns:xlink="http://www.w3.org/1999/xlink">
<rect  x="0.559" y="108.365" width="235.495" height="270.922" transform="rotate(-44.475 0.559 108.365)" fill="url(#pattern_0_320_178)"/>
<path d="M188.78,71.612C188.78,91.029 172.772,106.77 153.026,106.77C133.28,106.77 117.273,91.029 117.273,71.612C117.273,52.195 133.28,36.454 153.026,36.454C172.772,36.454 188.78,52.195 188.78,71.612Z" transform="rotate(-44.475 153.026 71.612)" fill="#FFFFFF" stroke="#000000" stroke-width="4" stroke-miterlimit="3.999327"/>
<path d="M131.93,105.95C131.93,125.653 116.563,141.625 97.606,141.625C78.65,141.625 63.283,125.653 63.283,105.95C63.283,86.247 78.65,70.275 97.606,70.275C116.563,70.275 131.93,86.247 131.93,105.95Z" transform="rotate(-44.475 97.606 105.95)" fill="#FFFFFF" stroke="#000000" stroke-width="4" stroke-miterlimit="3.999327"/>
<path d="M118.965,97.164C118.965,101.733 115.977,105.436 112.291,105.436C108.605,105.436 105.617,101.733 105.617,97.164C105.617,92.595 108.605,88.892 112.291,88.892C115.977,88.892 118.965,92.595 118.965,97.164Z" transform="rotate(-44.475 112.291 97.164)" fill="#000000"/>
<path d="M143.929,81.397C143.929,85.966 140.941,89.67 137.256,89.67C133.57,89.67 130.582,85.966 130.582,81.397C130.582,76.829 133.57,73.125 137.256,73.125C140.941,73.125 143.929,76.829 143.929,81.397Z" transform="rotate(-44.475 137.256 81.397)" fill="#000000"/>
<path d="M115.208,97.048C115.208,98.191 114.355,99.117 113.302,99.117C112.248,99.117 111.395,98.191 111.395,97.048C111.395,95.906 112.248,94.98 113.302,94.98C114.355,94.98 115.208,95.906 115.208,97.048Z" transform="rotate(-44.475 113.302 97.048)" fill="#FFFFFF"/>
<path d="M139.16,81.398C139.16,82.54 138.306,83.466 137.253,83.466C136.2,83.466 135.346,82.54 135.346,81.398C135.346,80.255 136.2,79.329 137.253,79.329C138.306,79.329 139.16,80.255 139.16,81.398Z" transform="rotate(-44.475 137.253 81.398)" fill="#FFFFFF"/>
</svg>
