<svg width="152" height="114" viewBox="0 0 152 114" fill="none" xmlns="http://www.w3.org/2000/svg" xmlns:xlink="http://www.w3.org/1999/xlink">
<path d="M17.82,81.251L10.303,78.457C10.303,78.457 4.52,78.457 1.629,72.403C-1.263,66.35 -1.263,67.281 1.629,61.693C4.52,56.104 1.629,58.899 10.303,53.776C12.404,52.535 13.792,51.895 14.69,51.638L13.194,47.722L15.507,40.271L21.868,36.546L31.698,33.751L28.229,29.095L31.698,18.384C31.698,18.384 35.746,11.864 42.107,8.139C48.468,4.413 57.142,2.551 57.142,2.551L65.238,4.413C65.238,4.413 69.864,-0.244 75.069,-0.244L87.79,-0.244C94.73,-0.244 101.669,2.551 101.669,2.551L109.186,11.864C109.186,11.864 118.439,8.139 122.486,8.139C126.534,8.139 135.787,8.139 138.678,11.864C141.569,15.59 146.195,17.918 143.882,20.712C141.569,23.506 138.678,25.835 138.678,25.835L141.569,29.095C141.569,29.095 150.243,34.683 151.4,40.271C152.556,45.859 149.665,52.379 149.087,56.104C148.509,59.83 138.678,61.693 138.678,61.693C138.678,61.693 141.569,66.35 141.569,72.403C141.569,78.457 134.63,81.251 134.63,81.251L122.486,86.84L109.186,89.168C109.186,89.168 107.452,96.153 101.669,98.016C95.886,99.879 90.103,99.879 90.103,99.879L76.803,97.085L75.069,103.139C75.069,103.139 71.021,107.33 65.238,107.33C59.455,107.33 53.673,103.139 53.673,103.139L50.781,99.879L42.107,105.001C42.107,105.001 28.229,109.658 21.868,111.521C15.507,113.384 15.507,109.658 10.303,107.33C5.098,105.001 1.629,91.497 1.629,91.497L4.52,84.977L17.82,81.251Z" transform="rotate(7.005 75.565 55.891)" fill="#D9D9D9" stroke="#000000" stroke-width="2" stroke-miterlimit="3.999327"/>
</svg>
