<svg width="152" height="86" viewBox="0 0 152 86" fill="none" xmlns="http://www.w3.org/2000/svg" xmlns:xlink="http://www.w3.org/1999/xlink">
<path d="M18.448,62.125L10.977,60.004C10.977,60.004 5.231,60.004 2.357,55.406C-0.516,50.809 -0.516,51.517 2.357,47.273C5.231,43.03 2.357,45.152 10.977,41.262C13.065,40.32 14.445,39.834 15.338,39.639L13.851,36.665L16.149,31.007L22.471,28.178L32.24,26.056L28.792,22.52L32.24,14.387C32.24,14.387 36.263,9.436 42.584,6.607C48.906,3.778 57.526,2.364 57.526,2.364L65.571,3.778C65.571,3.778 70.168,0.242 75.34,0.242L87.983,0.242C94.879,0.242 101.775,2.364 101.775,2.364L109.246,9.436C109.246,9.436 118.441,6.607 122.463,6.607C126.486,6.607 135.681,6.607 138.554,9.436C141.427,12.265 146.025,14.033 143.726,16.155C141.427,18.277 138.554,20.045 138.554,20.045L141.427,22.52C141.427,22.52 150.048,26.763 151.197,31.007C152.346,35.25 149.473,40.201 148.898,43.03C148.323,45.859 138.554,47.273 138.554,47.273C138.554,47.273 141.427,50.809 141.427,55.406C141.427,60.004 134.531,62.125 134.531,62.125L122.463,66.369L109.246,68.137C109.246,68.137 107.522,73.441 101.775,74.855C96.028,76.27 90.282,76.27 90.282,76.27L77.064,74.148L75.34,78.745C75.34,78.745 71.318,81.928 65.571,81.928C59.824,81.928 54.078,78.745 54.078,78.745L51.204,76.27L42.584,80.16C42.584,80.16 28.792,83.696 22.471,85.11C16.149,86.525 16.149,83.696 10.977,81.928C5.805,80.16 2.357,69.905 2.357,69.905L5.231,64.954L18.448,62.125Z" transform="rotate(32.194 75.834 42.868)" fill="#D9D9D9" stroke="#000000" stroke-width="2" stroke-miterlimit="3.999327"/>
</svg>
